<svg xmlns="http://www.w3.org/2000/svg" xmlns:xlink="http://www.w3.org/1999/xlink" width="500" zoomAndPan="magnify" viewBox="0 0 375 374.999991" height="500" preserveAspectRatio="xMidYMid meet" version="1.0"><defs><g/></defs><rect x="-37.5" width="450" fill="#ffffff" y="-37.499999" height="449.999989" fill-opacity="1"/><rect x="-37.5" width="450" fill="#100000" y="-37.499999" height="449.999989" fill-opacity="1"/><rect x="-37.5" width="450" fill="#ffffff" y="-37.499999" height="449.999989" fill-opacity="1"/><rect x="-37.5" width="450" fill="#100000" y="-37.499999" height="449.999989" fill-opacity="1"/><g fill="#07f868" fill-opacity="1"><g transform="translate(6.54407, 230.285455)"><g><path d="M 4.410156 0.148438 L 18.667969 0.148438 L 18.667969 -110.097656 L 101.570312 0.148438 L 119.945312 0.148438 L 119.945312 -128.472656 L 105.6875 -128.472656 L 105.6875 -18.226562 L 22.785156 -128.472656 L 4.410156 -128.472656 Z M 4.410156 0.148438 "/></g></g></g><g fill="#07f868" fill-opacity="1"><g transform="translate(130.897628, 230.285455)"><g><path d="M 4.410156 0.148438 L 72.320312 0.148438 L 72.320312 -14.109375 L 23.371094 -14.109375 L 27.78125 -19.109375 C 58.796875 -55.414062 76.140625 -81.285156 76.140625 -94.808594 C 76.140625 -114.210938 59.238281 -130.085938 38.363281 -130.085938 C 24.988281 -130.085938 12.496094 -123.621094 5.878906 -112.742188 L 18.519531 -106.128906 C 22.929688 -112.300781 30.425781 -115.828125 38.363281 -115.828125 C 51.300781 -115.828125 61.882812 -106.570312 61.882812 -95.25 L 61.882812 -94.664062 C 61.882812 -85.550781 34.542969 -47.476562 4.410156 -12.640625 Z M 4.410156 0.148438 "/></g></g></g><g fill="#07f868" fill-opacity="1"><g transform="translate(211.448163, 230.285455)"><g><path d="M 48.066406 0.148438 L 62.472656 0.148438 L 78.492188 -43.070312 L 94.515625 0.148438 L 108.773438 0.148438 L 153.605469 -128.472656 L 138.464844 -128.472656 L 101.425781 -22.195312 L 86.871094 -61.589844 L 70.410156 -61.589844 L 55.414062 -22.046875 L 18.375 -128.472656 L 3.234375 -128.472656 Z M 48.066406 0.148438 "/></g></g></g><g fill="#ffffff" fill-opacity="1"><g transform="translate(60.37207, 344.249977)"><g><path d="M 12.261719 -0.523438 C 12.433594 -0.234375 12.753906 0 12.988281 0 L 15.640625 0 C 15.871094 0 16.164062 -0.175781 16.164062 -0.523438 L 16.164062 -17.824219 C 16.164062 -18.171875 15.871094 -18.347656 15.640625 -18.347656 L 12.929688 -18.347656 C 12.699219 -18.347656 12.40625 -18.171875 12.40625 -17.824219 L 12.40625 -7.222656 L 5.707031 -17.824219 C 5.503906 -18.113281 5.214844 -18.347656 4.980469 -18.347656 L 2.328125 -18.347656 C 2.097656 -18.347656 1.804688 -18.171875 1.804688 -17.824219 L 1.804688 -0.523438 C 1.804688 -0.175781 2.097656 0 2.328125 0 L 5.039062 0 C 5.269531 0 5.5625 -0.175781 5.5625 -0.523438 L 5.5625 -10.890625 Z M 12.261719 -0.523438 "/></g></g></g><g fill="#ffffff" fill-opacity="1"><g transform="translate(78.339785, 344.249977)"><g><path d="M 5.417969 -13.6875 C 5.417969 -14.035156 5.125 -14.210938 4.894531 -14.210938 L 2.183594 -14.210938 C 1.953125 -14.210938 1.660156 -14.035156 1.660156 -13.6875 L 1.660156 -7.164062 C 1.660156 -1.164062 4.105469 0.234375 7.660156 0.234375 C 9.378906 0.234375 13.804688 -0.496094 13.804688 -1.164062 L 13.804688 -13.6875 C 13.804688 -14.035156 13.511719 -14.210938 13.28125 -14.210938 L 10.570312 -14.210938 C 10.339844 -14.210938 10.046875 -14.035156 10.046875 -13.6875 L 10.046875 -3.40625 C 10.046875 -3.40625 8.910156 -3.058594 8.039062 -3.058594 C 6.816406 -3.058594 5.417969 -3.496094 5.417969 -5.300781 Z M 5.417969 -13.6875 "/></g></g></g><g fill="#ffffff" fill-opacity="1"><g transform="translate(93.948689, 344.249977)"><g><path d="M 12.84375 -6.816406 C 12.84375 -8.242188 12.84375 -9.378906 12.433594 -10.484375 C 13.074219 -10.949219 13.746094 -11.152344 14.300781 -11.152344 C 15.550781 -11.152344 16.335938 -10.6875 16.335938 -8.96875 L 16.335938 -0.523438 C 16.335938 -0.175781 16.628906 0 16.863281 0 L 19.570312 0 C 19.804688 0 20.09375 -0.175781 20.09375 -0.523438 L 20.09375 -7.398438 C 20.09375 -13.394531 18.203125 -14.445312 14.707031 -14.445312 C 14.355469 -14.445312 12.40625 -14.445312 10.863281 -13.105469 C 9.289062 -14.269531 8.386719 -14.445312 6.726562 -14.445312 C 5.503906 -14.445312 1.804688 -13.6875 1.804688 -12.988281 L 1.804688 -0.523438 C 1.804688 -0.175781 2.097656 0 2.328125 0 L 5.039062 0 C 5.269531 0 5.5625 -0.175781 5.5625 -0.523438 L 5.5625 -10.773438 C 5.5625 -10.773438 6.550781 -11.152344 7.191406 -11.152344 C 8.5625 -11.152344 9.085938 -10.6875 9.085938 -8.910156 L 9.085938 -0.523438 C 9.085938 -0.175781 9.378906 0 9.609375 0 L 12.320312 0 C 12.550781 0 12.84375 -0.175781 12.84375 -0.523438 Z M 12.84375 -6.816406 "/></g></g></g><g fill="#ffffff" fill-opacity="1"><g transform="translate(115.556541, 344.249977)"><g><path d="M 5.5625 -10.804688 C 5.5625 -10.804688 6.785156 -11.152344 7.601562 -11.152344 C 8.765625 -11.152344 10.078125 -10.6875 10.164062 -8.941406 C 10.164062 -8.941406 10.222656 -8.066406 10.222656 -7.191406 C 10.222656 -6.320312 10.164062 -5.300781 10.164062 -5.300781 C 10.078125 -3.554688 8.738281 -3.058594 7.601562 -3.058594 C 6.785156 -3.058594 5.5625 -3.378906 5.5625 -3.378906 Z M 1.804688 -0.988281 C 1.804688 -0.320312 6.117188 0.234375 7.980469 0.234375 C 11.5625 0.234375 13.980469 -1.574219 13.980469 -7.660156 C 13.980469 -12.960938 10.921875 -14.445312 8.707031 -14.445312 C 8.097656 -14.445312 6.871094 -14.445312 5.5625 -13.714844 L 5.5625 -17.824219 C 5.5625 -18.171875 5.269531 -18.347656 5.039062 -18.347656 L 2.328125 -18.347656 C 2.097656 -18.347656 1.804688 -18.171875 1.804688 -17.824219 Z M 1.804688 -0.988281 "/></g></g></g><g fill="#ffffff" fill-opacity="1"><g transform="translate(130.903365, 344.249977)"><g><path d="M 5.269531 -8.707031 C 5.269531 -11.152344 7.019531 -11.152344 7.542969 -11.152344 C 8.007812 -11.152344 9.757812 -11.152344 9.757812 -8.707031 Z M 13.511719 -8.5625 C 13.511719 -10.164062 13.019531 -14.445312 7.425781 -14.445312 C 1.894531 -14.445312 1.515625 -10.164062 1.515625 -8.5625 L 1.515625 -6.378906 C 1.515625 -1.542969 4.339844 0.234375 8.066406 0.234375 C 9.609375 0.234375 11.09375 0.234375 12.289062 -0.117188 C 12.492188 -0.175781 12.550781 -0.40625 12.550781 -0.496094 L 12.171875 -3 C 12.085938 -3.203125 11.910156 -3.261719 11.765625 -3.261719 C 10.921875 -3.144531 10.019531 -3.058594 9.085938 -3.058594 C 7.105469 -3.058594 5.300781 -3.117188 5.300781 -5.5625 L 12.988281 -5.5625 C 13.222656 -5.5625 13.511719 -5.738281 13.511719 -6.085938 Z M 13.511719 -8.5625 "/></g></g></g><g fill="#ffffff" fill-opacity="1"><g transform="translate(145.929857, 344.249977)"><g><path d="M 9.40625 -11.007812 C 9.640625 -11.007812 9.726562 -11.183594 9.726562 -11.386719 L 9.726562 -13.832031 C 9.726562 -14.066406 9.582031 -14.183594 9.378906 -14.269531 C 8.824219 -14.386719 7.980469 -14.445312 7.484375 -14.445312 C 4.28125 -14.445312 1.804688 -13.570312 1.804688 -13.046875 L 1.804688 -0.523438 C 1.804688 -0.175781 2.097656 0 2.328125 0 L 5.039062 0 C 5.269531 0 5.5625 -0.175781 5.5625 -0.523438 L 5.5625 -10.542969 C 5.5625 -10.542969 5.882812 -11.152344 7.921875 -11.152344 C 8.445312 -11.152344 9.117188 -11.066406 9.40625 -11.007812 Z M 9.40625 -11.007812 "/></g></g></g><g fill="#ffffff" fill-opacity="1"><g transform="translate(156.588174, 344.249977)"><g><path d="M 3 -14.503906 C 4.28125 -14.941406 5.707031 -15.144531 6.144531 -15.144531 C 7.949219 -15.144531 9.027344 -14.621094 9.027344 -13.25 C 9.027344 -9.960938 1.515625 -8.96875 1.515625 -3.027344 L 1.515625 -0.523438 C 1.515625 -0.175781 1.804688 0 2.039062 0 L 12.261719 0 C 12.609375 0 12.785156 -0.292969 12.785156 -0.523438 L 12.785156 -2.914062 C 12.785156 -3.144531 12.609375 -3.4375 12.261719 -3.4375 L 5.386719 -3.4375 C 5.765625 -6.988281 12.785156 -8.386719 12.785156 -13.394531 C 12.785156 -16.714844 10.398438 -18.582031 6.902344 -18.582031 C 5.007812 -18.582031 3.4375 -18.375 1.921875 -17.589844 C 1.804688 -17.53125 1.6875 -17.386719 1.6875 -17.066406 L 2.59375 -14.765625 C 2.679688 -14.5625 2.855469 -14.503906 3 -14.503906 Z M 3 -14.503906 "/></g></g></g><g fill="#ffffff" fill-opacity="1"><g transform="translate(170.886639, 344.249977)"><g><path d="M 10.191406 -18.347656 C 9.960938 -18.347656 9.726562 -18.171875 9.667969 -17.824219 L 7.046875 -4.628906 L 4.542969 -17.824219 C 4.484375 -18.171875 4.195312 -18.347656 3.960938 -18.347656 L 1.308594 -18.347656 C 1.078125 -18.347656 0.785156 -18.171875 0.785156 -17.824219 L 4.6875 -0.347656 C 4.777344 -0.117188 5.007812 0 5.183594 0 L 9.058594 0 C 9.230469 0 9.464844 -0.117188 9.550781 -0.347656 L 11.792969 -11.765625 L 14.035156 -0.347656 C 14.125 -0.117188 14.355469 0 14.53125 0 L 18.40625 0 C 18.582031 0 18.8125 -0.117188 18.902344 -0.347656 L 22.804688 -17.824219 C 22.804688 -18.171875 22.511719 -18.347656 22.277344 -18.347656 L 19.628906 -18.347656 C 19.394531 -18.347656 19.105469 -18.171875 19.046875 -17.824219 L 16.542969 -4.628906 L 13.921875 -17.824219 C 13.863281 -18.171875 13.628906 -18.347656 13.394531 -18.347656 Z M 10.191406 -18.347656 "/></g></g></g><g fill="#ffffff" fill-opacity="1"><g transform="translate(194.474729, 344.249977)"><g><path d="M 5.5625 -17.824219 C 5.5625 -18.171875 5.269531 -18.347656 5.039062 -18.347656 L 2.328125 -18.347656 C 2.097656 -18.347656 1.804688 -18.171875 1.804688 -17.824219 L 1.804688 -0.523438 C 1.804688 -0.175781 2.097656 0 2.328125 0 L 5.039062 0 C 5.269531 0 5.5625 -0.175781 5.5625 -0.523438 L 5.5625 -10.164062 C 6.464844 -11.007812 7.339844 -11.152344 7.921875 -11.152344 C 9.726562 -11.152344 10.191406 -9.699219 10.191406 -9.058594 L 10.191406 -0.523438 C 10.191406 -0.175781 10.484375 0 10.71875 0 L 13.425781 0 C 13.660156 0 13.949219 -0.175781 13.949219 -0.523438 L 13.949219 -9.203125 C 13.949219 -12.753906 11.96875 -14.445312 9.117188 -14.445312 C 8.417969 -14.445312 6.726562 -14.445312 5.5625 -13.074219 Z M 5.5625 -17.824219 "/></g></g></g><g fill="#ffffff" fill-opacity="1"><g transform="translate(209.938031, 344.249977)"><g><path d="M 8.851562 -3.582031 C 8.851562 -3.085938 7.890625 -2.882812 6.960938 -2.882812 C 5.707031 -2.882812 5.125 -3.203125 5.125 -4.398438 C 5.125 -5.589844 6.523438 -5.796875 7.628906 -5.796875 L 8.851562 -5.796875 Z M 3.027344 -10.773438 C 4.164062 -11.039062 5.097656 -11.152344 6 -11.152344 C 7.777344 -11.152344 8.621094 -10.601562 8.621094 -8.941406 L 8.621094 -8.765625 L 6.378906 -8.765625 C 3.640625 -8.765625 1.367188 -7.921875 1.367188 -4.105469 C 1.367188 -0.378906 4.105469 0.234375 7.019531 0.234375 C 8.5625 0.234375 12.609375 -0.320312 12.609375 -1.019531 L 12.609375 -8.765625 C 12.609375 -12.550781 10.367188 -14.445312 6.757812 -14.445312 C 5.269531 -14.445312 3.84375 -14.328125 2.476562 -13.890625 C 2.300781 -13.804688 2.183594 -13.660156 2.183594 -13.453125 L 2.621094 -11.039062 C 2.707031 -10.832031 2.882812 -10.773438 3.027344 -10.773438 Z M 3.027344 -10.773438 "/></g></g></g><g fill="#ffffff" fill-opacity="1"><g transform="translate(224.207371, 344.249977)"><g><path d="M 9.203125 0.0859375 C 9.550781 0.0273438 9.726562 -0.234375 9.726562 -0.464844 L 9.726562 -2.59375 C 9.726562 -2.824219 9.550781 -3.117188 9.203125 -3.117188 C 9.117188 -3.117188 8.53125 -3.058594 8.417969 -3.058594 C 6.960938 -3.058594 6.640625 -4.078125 6.640625 -4.921875 L 6.640625 -10.921875 L 8.910156 -10.921875 C 9.261719 -10.921875 9.4375 -11.210938 9.4375 -11.445312 L 9.4375 -13.6875 C 9.4375 -13.921875 9.261719 -14.210938 8.910156 -14.210938 L 6.640625 -14.210938 L 6.640625 -17.824219 C 6.640625 -18.171875 6.347656 -18.347656 6.117188 -18.347656 L 3.84375 -18.347656 C 3.609375 -18.347656 3.378906 -18.144531 3.289062 -17.792969 L 2.882812 -15.960938 L 2.882812 -14.210938 L 1.457031 -14.210938 C 1.105469 -14.210938 0.933594 -13.921875 0.933594 -13.6875 L 0.933594 -11.445312 C 0.933594 -11.210938 1.105469 -10.921875 1.457031 -10.921875 L 2.882812 -10.921875 L 2.882812 -4.863281 C 2.882812 -0.960938 4.980469 0.234375 7.511719 0.234375 C 8.15625 0.234375 8.738281 0.144531 9.203125 0.0859375 Z M 9.203125 0.0859375 "/></g></g></g><g fill="#ffffff" fill-opacity="1"><g transform="translate(235.302508, 344.249977)"><g><path d="M 9.960938 -11.039062 C 10.078125 -11.007812 10.222656 -10.949219 10.308594 -10.949219 C 10.511719 -10.949219 10.601562 -11.066406 10.6875 -11.210938 L 11.359375 -13.132812 C 11.386719 -13.222656 11.445312 -13.367188 11.445312 -13.484375 C 11.445312 -13.628906 11.386719 -13.773438 11.183594 -13.863281 C 10.078125 -14.242188 8.503906 -14.445312 6.816406 -14.445312 C 4.308594 -14.445312 1.398438 -13.394531 1.398438 -10.164062 C 1.398438 -5.039062 8.941406 -6.347656 8.941406 -3.988281 C 8.941406 -3.117188 8.269531 -2.882812 6.582031 -2.882812 C 5.386719 -2.882812 3.726562 -3.464844 2.707031 -3.816406 C 2.621094 -3.84375 2.503906 -3.875 2.417969 -3.875 C 2.214844 -3.875 2.066406 -3.785156 1.980469 -3.640625 L 1.308594 -1.980469 C 1.28125 -1.894531 1.222656 -1.804688 1.222656 -1.6875 C 1.222656 -1.542969 1.308594 -1.398438 1.484375 -1.253906 C 2.417969 -0.613281 4.195312 0.234375 6.816406 0.234375 C 11.445312 0.234375 12.699219 -1.921875 12.699219 -4.019531 C 12.699219 -9.230469 5.183594 -7.949219 5.183594 -10.164062 C 5.183594 -10.453125 5.359375 -11.328125 7.308594 -11.328125 C 8.15625 -11.328125 9.289062 -11.210938 9.960938 -11.039062 Z M 9.960938 -11.039062 "/></g></g></g><g fill="#ffffff" fill-opacity="1"><g transform="translate(248.931185, 344.249977)"><g><path d="M 8.851562 -3.582031 C 8.851562 -3.085938 7.890625 -2.882812 6.960938 -2.882812 C 5.707031 -2.882812 5.125 -3.203125 5.125 -4.398438 C 5.125 -5.589844 6.523438 -5.796875 7.628906 -5.796875 L 8.851562 -5.796875 Z M 3.027344 -10.773438 C 4.164062 -11.039062 5.097656 -11.152344 6 -11.152344 C 7.777344 -11.152344 8.621094 -10.601562 8.621094 -8.941406 L 8.621094 -8.765625 L 6.378906 -8.765625 C 3.640625 -8.765625 1.367188 -7.921875 1.367188 -4.105469 C 1.367188 -0.378906 4.105469 0.234375 7.019531 0.234375 C 8.5625 0.234375 12.609375 -0.320312 12.609375 -1.019531 L 12.609375 -8.765625 C 12.609375 -12.550781 10.367188 -14.445312 6.757812 -14.445312 C 5.269531 -14.445312 3.84375 -14.328125 2.476562 -13.890625 C 2.300781 -13.804688 2.183594 -13.660156 2.183594 -13.453125 L 2.621094 -11.039062 C 2.707031 -10.832031 2.882812 -10.773438 3.027344 -10.773438 Z M 3.027344 -10.773438 "/></g></g></g><g fill="#ffffff" fill-opacity="1"><g transform="translate(263.200524, 344.249977)"><g><path d="M 5.5625 -10.832031 C 5.5625 -10.832031 6.785156 -11.152344 7.601562 -11.152344 C 8.738281 -11.152344 10.078125 -10.660156 10.164062 -8.910156 C 10.164062 -8.910156 10.222656 -7.890625 10.222656 -7.019531 C 10.222656 -6.144531 10.164062 -5.269531 10.164062 -5.269531 C 10.078125 -3.523438 8.765625 -3.058594 7.601562 -3.058594 C 6.785156 -3.058594 5.5625 -3.40625 5.5625 -3.40625 Z M 1.804688 3.816406 C 1.804688 4.164062 2.097656 4.339844 2.328125 4.339844 L 5.039062 4.339844 C 5.269531 4.339844 5.5625 4.164062 5.5625 3.816406 L 5.5625 -0.292969 C 6.871094 0.234375 8.097656 0.234375 8.707031 0.234375 C 10.921875 0.234375 13.980469 -1.253906 13.980469 -6.550781 C 13.980469 -12.640625 11.5625 -14.445312 7.980469 -14.445312 C 6.117188 -14.445312 1.804688 -13.714844 1.804688 -13.046875 Z M 1.804688 3.816406 "/></g></g></g><g fill="#ffffff" fill-opacity="1"><g transform="translate(278.547348, 344.249977)"><g><path d="M 5.5625 -10.832031 C 5.5625 -10.832031 6.785156 -11.152344 7.601562 -11.152344 C 8.738281 -11.152344 10.078125 -10.660156 10.164062 -8.910156 C 10.164062 -8.910156 10.222656 -7.890625 10.222656 -7.019531 C 10.222656 -6.144531 10.164062 -5.269531 10.164062 -5.269531 C 10.078125 -3.523438 8.765625 -3.058594 7.601562 -3.058594 C 6.785156 -3.058594 5.5625 -3.40625 5.5625 -3.40625 Z M 1.804688 3.816406 C 1.804688 4.164062 2.097656 4.339844 2.328125 4.339844 L 5.039062 4.339844 C 5.269531 4.339844 5.5625 4.164062 5.5625 3.816406 L 5.5625 -0.292969 C 6.871094 0.234375 8.097656 0.234375 8.707031 0.234375 C 10.921875 0.234375 13.980469 -1.253906 13.980469 -6.550781 C 13.980469 -12.640625 11.5625 -14.445312 7.980469 -14.445312 C 6.117188 -14.445312 1.804688 -13.714844 1.804688 -13.046875 Z M 1.804688 3.816406 "/></g></g></g></svg>